<svg width="15" height="17" viewBox="0 0 15 17" fill="none" xmlns="http://www.w3.org/2000/svg">
<path d="M12.5 0V1.21429H13.75V4.85714C13.75 5.50124 13.4866 6.11896 13.0178 6.5744C12.5489 7.02985 11.913 7.28571 11.25 7.28571C10.587 7.28571 9.95108 7.02985 9.48224 6.5744C9.0134 6.11896 8.75 5.50124 8.75 4.85714V1.21429H10V0H7.5V4.85714C7.50152 5.71722 7.816 6.54909 8.38785 7.20571C8.95971 7.86233 9.75211 8.30141 10.625 8.44536V12.1429C10.625 13.109 10.2299 14.0356 9.52665 14.7187C8.82339 15.4019 7.86957 15.7857 6.875 15.7857C5.88044 15.7857 4.92661 15.4019 4.22335 14.7187C3.52009 14.0356 3.125 13.109 3.125 12.1429V8.41379C3.71417 8.26601 4.22762 7.91458 4.56913 7.42535C4.91064 6.93613 5.05675 6.34271 4.98008 5.75632C4.90341 5.16993 4.60922 4.63084 4.15265 4.24009C3.69608 3.84934 3.10849 3.63376 2.50001 3.63376C1.89152 3.63376 1.30393 3.84934 0.84736 4.24009C0.390794 4.63084 0.0966033 5.16993 0.0199318 5.75632C-0.0567397 6.34271 0.0893722 6.93613 0.43088 7.42535C0.772387 7.91458 1.28584 8.26601 1.87501 8.41379V12.1429C1.87501 13.4311 2.40179 14.6665 3.33947 15.5774C4.27715 16.4883 5.54892 17 6.875 17C8.20109 17 9.47285 16.4883 10.4105 15.5774C11.3482 14.6665 11.875 13.4311 11.875 12.1429V8.44536C12.7479 8.30141 13.5403 7.86233 14.1121 7.20571C14.684 6.54909 14.9985 5.71722 15 4.85714V0H12.5ZM1.25001 6.07143C1.25001 5.83127 1.32332 5.5965 1.46067 5.39681C1.59802 5.19712 1.79324 5.04148 2.02165 4.94957C2.25006 4.85767 2.50139 4.83362 2.74387 4.88048C2.98634 4.92733 3.20907 5.04298 3.38389 5.2128C3.5587 5.38262 3.67775 5.59898 3.72599 5.83453C3.77422 6.07008 3.74946 6.31423 3.65485 6.53612C3.56024 6.758 3.40003 6.94764 3.19447 7.08107C2.98891 7.2145 2.74723 7.28571 2.50001 7.28571C2.16859 7.28539 1.85084 7.15736 1.61649 6.9297C1.38214 6.70205 1.25034 6.39338 1.25001 6.07143Z" fill="#059B9C"/>
</svg>
