<svg width="13" height="17" viewBox="0 0 13 17" fill="none" xmlns="http://www.w3.org/2000/svg">
<path d="M11.9607 4.43214L7.71071 0.182143C7.58929 0.0607143 7.46786 0 7.28571 0H1.21429C0.546429 0 0 0.546429 0 1.21429V15.7857C0 16.4536 0.546429 17 1.21429 17H10.9286C11.5964 17 12.1429 16.4536 12.1429 15.7857V4.85714C12.1429 4.675 12.0821 4.55357 11.9607 4.43214ZM7.28571 1.45714L10.6857 4.85714H7.28571V1.45714ZM10.9286 15.7857H1.21429V1.21429H6.07143V4.85714C6.07143 5.525 6.61786 6.07143 7.28571 6.07143H10.9286V15.7857Z" fill="#059B9C"/>
</svg>
