<svg width="18" height="18" viewBox="0 0 18 18" fill="none" xmlns="http://www.w3.org/2000/svg">
<path fill-rule="evenodd" clip-rule="evenodd" d="M9 17.1C4.52655 17.1 0.9 13.4734 0.9 9C0.9 4.52655 4.52655 0.9 9 0.9C13.4734 0.9 17.1 4.52655 17.1 9C17.1 13.4734 13.4734 17.1 9 17.1ZM0 9C0 4.0293 4.0293 0 9 0C13.9707 0 18 4.0293 18 9C18 13.9707 13.9707 18 9 18C4.0293 18 0 13.9707 0 9ZM7.19595 13.0716V9.9216H10.7959V13.0716H12.5959V4.9716H10.7959V8.1216H7.19595V4.9716H5.39595V13.0716H7.19595Z" fill="#059B9C"/>
</svg>
