<svg width="15" height="15" viewBox="0 0 15 15" fill="none" xmlns="http://www.w3.org/2000/svg">
<mask id="mask0_1112_5831" style="mask-type:alpha" maskUnits="userSpaceOnUse" x="0" y="0" width="15" height="15">
<rect width="15" height="15" fill="#D9D9D9"/>
</mask>
<g mask="url(#mask0_1112_5831)">
<path d="M3.125 13.125C2.78125 13.125 2.48687 13.0027 2.24187 12.7581C1.99729 12.5131 1.875 12.2188 1.875 11.875V3.125C1.875 2.78125 1.99729 2.48687 2.24187 2.24187C2.48687 1.99729 2.78125 1.875 3.125 1.875H7.5V3.125H3.125V11.875H11.875V7.5H13.125V11.875C13.125 12.2188 13.0027 12.5131 12.7581 12.7581C12.5131 13.0027 12.2188 13.125 11.875 13.125H3.125ZM6.0625 9.8125L5.1875 8.9375L11 3.125H8.75V1.875H13.125V6.25H11.875V4L6.0625 9.8125Z" fill="white" fill-opacity="0.8"/>
</g>
</svg>
